<svg xmlns="http://www.w3.org/2000/svg" viewBox="0 0 2732 2732">
  <defs>
    <linearGradient id="sbg" x1="0" y1="0" x2="1" y2="1">
      <stop offset="0%" stop-color="#0a0a1a"/>
      <stop offset="100%" stop-color="#12121a"/>
    </linearGradient>
    <linearGradient id="saccent" x1="0" y1="0" x2="1" y2="1">
      <stop offset="0%" stop-color="#5b8af5"/>
      <stop offset="100%" stop-color="#8b6cf5"/>
    </linearGradient>
  </defs>
  <rect width="2732" height="2732" fill="url(#sbg)"/>
  <!-- Icon centered -->
  <g transform="translate(1116, 1016)">
    <rect width="500" height="500" rx="100" fill="url(#sbg)" stroke="url(#saccent)" stroke-width="4"/>
    <g stroke="url(#saccent)" stroke-width="2" opacity="0.3">
      <line x1="165" y1="90" x2="165" y2="410"/>
      <line x1="250" y1="90" x2="250" y2="410"/>
      <line x1="335" y1="90" x2="335" y2="410"/>
      <line x1="90" y1="185" x2="410" y2="185"/>
      <line x1="90" y1="250" x2="410" y2="250"/>
      <line x1="90" y1="325" x2="410" y2="325"/>
    </g>
    <g fill="url(#saccent)">
      <rect x="130" y="130" width="30" height="230" rx="6"/>
      <polygon points="160,245 270,130 310,130 200,245 310,370 270,370"/>
    </g>
    <rect x="255" y="190" width="75" height="55" rx="10" fill="url(#saccent)" opacity="0.5"/>
    <rect x="255" y="255" width="75" height="55" rx="10" fill="#4ade80" opacity="0.4"/>
  </g>
  <text x="1366" y="1620" text-anchor="middle" fill="white" font-family="sans-serif" font-size="64" font-weight="bold">KanaTime</text>
</svg>
