<svg xmlns="http://www.w3.org/2000/svg" viewBox="0 0 512 512" role="img" aria-label="23:58 Campus icon">
  <rect width="512" height="512" rx="96" fill="#05050F"/>
  <circle cx="256" cy="188" r="104" fill="#0C0C1A" stroke="#2D4A6B" stroke-width="11"/>
  <path d="M256 188V102M256 188l64 42" stroke="#E8E6DF" stroke-width="14" stroke-linecap="round"/>
  <circle cx="256" cy="188" r="11" fill="#C0392B"/>
  <path d="M74 414h364v-70h-32V218h-74v126h-49v-84h-55v84h-53V234h-64v110H74z" fill="#12121F" stroke="#1E1E2E" stroke-width="6"/>
  <path d="M111 234l32-40 32 40M332 218l37-48 37 48" fill="none" stroke="#55535C" stroke-width="8"/>
  <rect x="132" y="286" width="18" height="58" fill="#1E1E2E"/>
  <rect x="226" y="300" width="18" height="44" fill="#1E1E2E"/>
  <rect x="268" y="300" width="18" height="44" fill="#1E1E2E"/>
  <rect x="352" y="274" width="22" height="70" fill="#1E1E2E"/>
  <circle cx="377" cy="316" r="8" fill="#C0392B"/>
  <text x="256" y="470" text-anchor="middle" fill="#B8B4A8" font-size="54" font-family="Courier New, monospace" letter-spacing="5">23:58</text>
</svg>
